<svg enable-background="new 0 0 50.613 50.613" height="512" viewBox="0 0 50.613 50.613" width="512" xmlns="http://www.w3.org/2000/svg"><style>circle, path { fill: #fff; }</style><g><g><g><path d="m49.569 11.145h-29.514c-.961 0-1.508.743-1.223 1.661l4.669 13.677c.23.738 1.044 1.336 1.817 1.336h19.35c.773 0 1.586-.598 1.814-1.336l4.069-14c.232-.739-.207-1.338-.982-1.338z"/><circle cx="22.724" cy="43.575" r="4.415"/><circle cx="41.406" cy="43.63" r="4.415"/><path d="m46.707 32.312h-25.821l-10.337-29.744h-8.049c-1.381 0-2.5 1.119-2.5 2.5s1.119 2.5 2.5 2.5h4.493l10.337 29.744h29.377c1.381 0 2.5-1.119 2.5-2.5s-1.119-2.5-2.5-2.5z"/></g></g></g></svg>