<svg id="Capa_1" enable-background="new 0 0 48.665 48.665" height="512" viewBox="0 0 48.665 48.665" width="512" xmlns="http://www.w3.org/2000/svg"><style>path { fill: #00bd7e; }</style><g><g><path d="m40.332 31.592c-2.377 0-4.515 1-6.033 2.598l-17.737-8.686c.061-.406.103-.82.103-1.246 0-.414-.04-.818-.098-1.215l17.711-8.589c1.519 1.609 3.666 2.619 6.054 2.619 4.603 0 8.333-3.731 8.333-8.333 0-4.603-3.73-8.333-8.333-8.333s-8.333 3.73-8.333 8.333c0 .414.04.817.098 1.215l-17.709 8.589c-1.519-1.609-3.666-2.619-6.054-2.619-4.604 0-8.334 3.731-8.334 8.333 0 4.603 3.73 8.333 8.333 8.333 2.377 0 4.515-1 6.033-2.596l17.736 8.685c-.062.406-.104.82-.104 1.245 0 4.604 3.73 8.333 8.333 8.333s8.333-3.729 8.333-8.333c.001-4.603-3.729-8.333-8.332-8.333z"/></g></g></svg>