<svg enable-background="new 0 0 49.654 49.654" height="512" viewBox="0 0 49.654 49.654" width="512" xmlns="http://www.w3.org/2000/svg"><style>path { fill: #fff; }</style><g><g><path d="m24.827 0c-13.689 0-24.826 11.138-24.826 24.827s11.137 24.827 24.826 24.827c13.688 0 24.826-11.138 24.826-24.827s-11.136-24.827-24.826-24.827zm14.315 38.51c0-.574 0-.979 0-.979 0-3.386-3.912-4.621-6.006-5.517-.758-.323-2.187-1.011-3.653-1.728-.495-.242-.941-.887-.997-1.438l-.162-1.604c1.122-1.045 2.133-2.5 2.304-4.122h.253c.398 0 .773-.298.832-.663l.397-2.453c.053-.524-.442-.842-.843-.842.011-.052.02-.105.025-.149.051-.295.082-.58.102-.857.025-.223.045-.454.056-.693.042-1.158-.154-2.171-.479-2.738-.33-.793-.83-1.563-1.526-2.223-1.939-1.836-4.188-2.551-6.106-1.075-1.306-.226-2.858.371-3.979 1.684-.612.717-.993 1.537-1.156 2.344-.146.503-.243 1.112-.267 1.771-.026.733.046 1.404.181 1.947-.382.024-.764.338-.764.833l.396 2.453c.059.365.434.663.832.663h.227c.36 1.754 1.292 3.194 2.323 4.198l-.156 1.551c-.056.55-.502 1.193-.998 1.438-1.418.692-2.815 1.358-3.651 1.703-1.97.812-6.006 2.131-6.006 5.517v.766c-3.288-3.541-5.316-8.266-5.316-13.467 0-10.932 8.894-19.826 19.826-19.826 10.933 0 19.826 8.894 19.826 19.826-.004 5.303-2.109 10.116-5.515 13.68z"/></g></g></svg>